<svg width="12" height="27" viewBox="0 0 12 27" fill="none" xmlns="http://www.w3.org/2000/svg">
  <path fill-rule="evenodd" clip-rule="evenodd" d="M0.785044 12.5175C0.611187 12.7472 0.515625 13.0397 0.515625 13.3422C0.515625 13.6447 0.611187 13.9372 0.785044 14.1669L9.7419 25.9965C9.83757 26.123 9.95431 26.2269 10.0855 26.3023C10.2166 26.3778 10.3596 26.4232 10.5062 26.4361C10.6529 26.449 10.8004 26.429 10.9402 26.3773C11.0801 26.3257 11.2096 26.2434 11.3213 26.1351C11.433 26.0268 11.5248 25.8946 11.5915 25.7462C11.6581 25.5977 11.6982 25.4358 11.7096 25.2698C11.721 25.1038 11.7033 24.9368 11.6577 24.7785C11.6121 24.6202 11.5394 24.4736 11.4437 24.3471L3.10935 13.3422L11.4407 2.33731C11.5421 2.212 11.6202 2.06489 11.6703 1.90474C11.7204 1.74458 11.7416 1.57465 11.7326 1.40505C11.7236 1.23544 11.6845 1.06962 11.6177 0.917447C11.5509 0.765274 11.4578 0.629854 11.3439 0.519238C11.23 0.408622 11.0975 0.325068 10.9545 0.273544C10.8115 0.22202 10.6608 0.203578 10.5113 0.219315C10.3619 0.235051 10.2167 0.284645 10.0846 0.365147C9.95239 0.445649 9.83586 0.555416 9.7419 0.687923L0.785044 12.5175Z" fill="black" />
</svg>