<svg width="7" height="17" viewBox="0 0 7 17" fill="none" xmlns="http://www.w3.org/2000/svg">
  <path fill-rule="evenodd" clip-rule="evenodd" d="M6.8319 7.97537C6.94038 8.12426 7 8.31387 7 8.50994C7 8.70602 6.94038 8.89563 6.8319 9.04452L1.24334 16.7126C1.18365 16.7946 1.11081 16.862 1.02899 16.9109C0.947157 16.9597 0.857943 16.9892 0.766435 16.9975C0.674928 17.0059 0.58292 16.9929 0.495664 16.9595C0.408408 16.926 0.327613 16.8726 0.257893 16.8024C0.188172 16.7322 0.130892 16.6466 0.0893211 16.5503C0.04775 16.4541 0.0227032 16.3492 0.0156107 16.2415C0.0085187 16.1339 0.0195198 16.0257 0.047986 15.9231C0.0764518 15.8205 0.121826 15.7254 0.181516 15.6434L5.38167 8.50994L0.183379 1.37644C0.120132 1.29521 0.0714178 1.19985 0.0401325 1.09604C0.00884724 0.992228 -0.00436974 0.882077 0.001266 0.772136C0.00690222 0.662195 0.0312767 0.554709 0.0729403 0.456069C0.114604 0.357428 0.172706 0.269648 0.243793 0.197945C0.314879 0.126242 0.397499 0.0720813 0.48674 0.038683C0.57598 0.00528467 0.670019 -0.00666941 0.763267 0.00353118C0.856514 0.0137318 0.947065 0.0458788 1.02954 0.0980613C1.11201 0.150244 1.18472 0.221396 1.24334 0.307288L6.8319 7.97537Z" fill="white" />
</svg>